<?xml version="1.0" encoding="UTF-8"?>
<!DOCTYPE svg PUBLIC "-//W3C//DTD SVG 1.1//EN" "http://www.w3.org/Graphics/SVG/1.1/DTD/svg11.dtd">
<!-- Creator: CorelDRAW -->
<svg xmlns="http://www.w3.org/2000/svg" xml:space="preserve" width="76.1998mm" height="25.3998mm" version="1.1" shape-rendering="geometricPrecision" text-rendering="geometricPrecision" image-rendering="optimizeQuality" fill-rule="evenodd" clip-rule="evenodd"
viewBox="0 0 7619.98 2539.98"
 xmlns:xlink="http://www.w3.org/1999/xlink"
 xmlns:xodm="http://www.corel.com/coreldraw/odm/2003">
 <g id="Camada_x0020_1">
  <metadata id="CorelCorpID_0Corel-Layer"/>
  <path fill="#0D5F78" fill-rule="nonzero" d="M431.29 1714.49l400.05 -889 162.56 0 401.32 889 -172.72 0 -344.17 -801.37 66.04 0 -342.9 801.37 -170.18 0zm184.15 -205.74l44.45 -129.54 480.06 0 44.45 129.54 -568.96 0z"/>
  <path id="_1" fill="#0D5F78" fill-rule="nonzero" d="M1819.78 1727.19c-69.43,0 -135.89,-9.95 -199.39,-29.85 -63.5,-19.89 -113.88,-45.5 -151.13,-76.83l57.15 -128.27c35.56,27.94 79.59,51.22 132.08,69.85 52.49,18.63 106.26,27.94 161.29,27.94 46.57,0 84.24,-5.08 113.03,-15.24 28.79,-10.16 49.95,-23.92 63.5,-41.28 13.55,-17.35 20.32,-37.04 20.32,-59.05 0,-27.09 -9.74,-48.9 -29.21,-65.41 -19.47,-16.51 -44.66,-29.63 -75.56,-39.37 -30.91,-9.73 -65.2,-18.83 -102.87,-27.3 -37.68,-8.47 -75.36,-18.42 -113.03,-29.85 -37.68,-11.43 -71.97,-26.24 -102.87,-44.45 -30.91,-18.2 -56.1,-42.54 -75.57,-73.02 -19.47,-30.48 -29.21,-69.43 -29.21,-116.84 0,-48.26 12.91,-92.5 38.74,-132.72 25.82,-40.21 65.19,-72.39 118.11,-96.52 52.91,-24.13 120.01,-36.19 201.29,-36.19 53.34,0 106.26,6.77 158.75,20.32 52.49,13.55 98.21,33.02 137.16,58.42l-52.07 128.27c-39.79,-23.71 -80.86,-41.28 -123.19,-52.71 -42.33,-11.43 -82.97,-17.14 -121.92,-17.14 -45.72,0 -82.76,5.5 -111.12,16.51 -28.37,11.01 -49.11,25.4 -62.23,43.18 -13.13,17.78 -19.69,38.1 -19.69,60.96 0,27.09 9.53,48.89 28.58,65.4 19.05,16.51 44.02,29.43 74.93,38.74 30.9,9.31 65.4,18.41 103.5,27.3 38.1,8.89 75.99,18.84 113.67,29.85 37.67,11.01 71.96,25.4 102.87,43.18 30.9,17.78 55.88,41.91 74.93,72.39 19.05,30.48 28.57,69 28.57,115.57 0,47.41 -12.91,91.23 -38.73,131.44 -25.83,40.22 -65.41,72.39 -118.75,96.52 -53.34,24.14 -120.65,36.2 -201.93,36.2z"/>
  <path id="_2" fill="#0D5F78" fill-rule="nonzero" d="M2790.44 1727.19c-67.73,0 -130.6,-11.22 -188.59,-33.66 -58,-22.43 -108.38,-54.18 -151.13,-95.25 -42.76,-41.06 -75.99,-89.53 -99.7,-145.41 -23.71,-55.88 -35.56,-116.84 -35.56,-182.88 0,-66.04 11.85,-127 35.56,-182.88 23.71,-55.88 57.15,-104.35 100.33,-145.42 43.18,-41.06 93.56,-72.81 151.13,-95.25 57.57,-22.43 120.65,-33.65 189.23,-33.65 72.81,0 139.28,12.49 199.39,37.46 60.11,24.98 110.91,62.02 152.4,111.13l-106.68 100.33c-32.17,-34.71 -68.16,-60.75 -107.95,-78.11 -39.79,-17.35 -82.97,-26.03 -129.54,-26.03 -46.57,0 -89.11,7.62 -127.63,22.86 -38.53,15.24 -71.97,36.83 -100.33,64.77 -28.37,27.94 -50.38,60.96 -66.04,99.06 -15.67,38.1 -23.5,80.01 -23.5,125.73 0,45.72 7.83,87.63 23.5,125.73 15.66,38.1 37.67,71.12 66.04,99.06 28.36,27.94 61.8,49.53 100.33,64.77 38.52,15.24 81.06,22.86 127.63,22.86 46.57,0 89.75,-8.68 129.54,-26.04 39.79,-17.35 75.78,-43.81 107.95,-79.37l106.68 101.6c-41.49,48.26 -92.29,85.09 -152.4,110.49 -60.11,25.4 -127,38.1 -200.66,38.1z"/>
  <path id="_3" fill="#0D5F78" fill-rule="nonzero" d="M3329.3 1714.49l-2.54 -889 647.7 0 1.27 138.43 -485.14 -1.27 1.27 613.41 500.38 1.27 1.27 137.16 -664.21 0zm148.59 -386.08l1.27 -133.35 440.69 2.54 1.27 133.35 -443.23 -2.54z"/>
  <polygon id="_4" fill="#0D5F78" fill-rule="nonzero" points="4214.87,1714.49 4213.6,825.49 4349.49,825.49 4907.02,1510.02 4840.98,1511.29 4839.71,825.49 5002.27,825.49 5003.54,1714.49 4867.65,1714.49 4310.12,1029.96 4377.43,1028.69 4377.43,1714.49 "/>
  <path id="_5" fill="#0D5F78" fill-rule="nonzero" d="M5278.24 1714.49l0 -889 388.62 0c96.52,0 181.19,18.63 254,55.88 72.81,37.25 129.54,88.9 170.18,154.94 40.64,66.04 60.96,143.93 60.96,233.68 0,88.9 -20.32,166.58 -60.96,233.04 -40.64,66.47 -97.37,118.33 -170.18,155.58 -72.81,37.25 -157.48,55.88 -254,55.88l-388.62 0zm165.1 -139.7l215.9 0c66.04,0 123.61,-12.7 172.72,-38.1 49.11,-25.4 87,-60.96 113.67,-106.68 26.67,-45.72 40,-99.06 40,-160.02 0,-61.81 -13.33,-115.36 -40,-160.66 -26.67,-45.29 -64.56,-80.64 -113.67,-106.04 -49.11,-25.4 -106.68,-38.1 -172.72,-38.1l-215.9 0 0 609.6z"/>
  <path id="_6" fill="#0D5F78" fill-rule="nonzero" d="M6224.77 1714.49l400.05 -889 162.56 0 401.32 889 -172.72 0 -344.17 -801.37 66.04 0 -342.9 801.37 -170.18 0zm184.15 -205.74l44.45 -129.54 480.06 0 44.45 129.54 -568.96 0z"/>
 </g>
</svg>
